 <svg xmlns="http://www.w3.org/2000/svg" width="250" height="250" viewBox="0 0 250 250">
  <path fill="#1077BC" d="M245 116c0-4 1-11 0-16-1-7-3-13-8-15-15-6-58-7-70-7-45 0-58-3-59 43 0 5 0 9-4 12-8 7-21 7-32 9-6 1-12 4-18 7-6 4-13 10-18 17-12 20 2 41 22 49-8-12-7-25 3-35 3-3 6-5 10-6 8-2 22-5 32-8 24-7 9-26 14-42 2-6 7-10 13-11 20-6 63-4 84-2 10 1 20 3 30 5z"/>
  <path fill="#2E3C7D" d="M243 134c-1 5-2 10-4 15-1 4-3 8-5 12-16-3-17-4-38-4h-5c-12 1-25 3-30 8-12 13 6 36-17 47-10 5-19 0-31 3-13 3-16 13-17 15-2 0-10-2-12-3-8-4-11-16-6-24 8-13 22-16 36-17 65-7 15-42 46-54 20-8 61-2 83 3z"/>
  <path fill="#26C1D8" d="M235 64c-4-8-8-16-13-23l-8-9c-14-2-28-2-40-3-13-1-32-2-50-1-13 0-26 2-34 4-21 7-9 24-14 39-1 4-4 10-7 13-4 3-43 18-51 25-17 13-16 36-5 54 1-13 9-24 21-29 2-1 9-6 18-10 11-5 22-10 23-10 21-8 3-31 14-44 9-11 36-10 51-10 10 0 21-1 32 0 17 0 35 1 52 4l11 2z"/>
</svg>